<?xml version="1.0" standalone="no"?>
<!DOCTYPE svg PUBLIC "-//W3C//DTD SVG 20010904//EN"
 "http://www.w3.org/TR/2001/REC-SVG-20010904/DTD/svg10.dtd">
<svg version="1.0" xmlns="http://www.w3.org/2000/svg"
 width="500.000000pt" height="500.000000pt" viewBox="0 0 500.000000 500.000000"
 preserveAspectRatio="xMidYMid meet">
<metadata>
Created by potrace 1.14, written by Peter Selinger 2001-2017
</metadata>
<g transform="translate(0.000000,500.000000) scale(0.100000,-0.100000)"
fill="#000000" stroke="none">
<path d="M2235 4985 c-314 -36 -596 -121 -880 -265 -161 -81 -275 -156 -430
-281 -505 -406 -835 -1009 -911 -1665 -19 -165 -14 -457 11 -624 124 -821 615
-1506 1345 -1878 345 -175 745 -272 1126 -272 98 0 403 26 413 35 2 3 -42 5
-98 5 -802 0 -1542 500 -1962 1326 -195 384 -291 780 -292 1209 -1 353 60 621
208 920 173 348 448 621 825 819 104 54 209 100 216 93 2 -2 -120 -466 -271
-1032 -151 -566 -273 -1030 -271 -1032 4 -4 685 105 1109 179 163 28 299 49
302 47 14 -14 -68 -440 -155 -810 -128 -539 -170 -720 -170 -731 0 -35 300
390 801 1137 152 226 396 589 543 808 146 218 262 397 257 397 -5 0 -125 -24
-267 -54 -755 -159 -1265 -242 -1297 -210 -14 15 80 263 223 589 51 116 162
372 247 570 85 198 186 425 224 504 38 79 68 145 67 146 -6 5 -211 47 -298 61
-135 21 -467 26 -615 9z"/>
<path d="M3712 4598 c235 -229 319 -351 392 -572 93 -281 97 -547 11 -803 -66
-196 -132 -308 -476 -808 -127 -184 -229 -382 -259 -500 -128 -514 6 -779 352
-696 126 30 310 126 435 227 23 19 44 34 47 34 8 0 -59 -104 -121 -187 -256
-342 -595 -543 -1146 -678 -604 -149 -1260 28 -1756 473 -63 57 -194 201 -269
298 -43 55 61 -131 143 -256 234 -358 517 -621 865 -803 176 -93 352 -152 570
-193 117 -22 413 -30 537 -15 371 46 701 181 990 405 514 400 855 989 950
1641 24 167 24 505 -1 670 -23 150 -83 390 -131 521 -46 123 -151 345 -212
444 -186 302 -465 592 -755 783 -89 58 -275 163 -318 178 -14 5 54 -67 152
-163z"/>
</g>
</svg>
